<?xml version="1.0" encoding="UTF-8"?>
<!DOCTYPE svg PUBLIC "-//W3C//DTD SVG 1.1//EN" "http://www.w3.org/Graphics/SVG/1.1/DTD/svg11.dtd">
<!-- Creator: CorelDRAW 2020 (64-Bit) -->
<svg xmlns="http://www.w3.org/2000/svg" xml:space="preserve" width="50.7998mm" height="24.6378mm" version="1.1" style="shape-rendering:geometricPrecision; text-rendering:geometricPrecision; image-rendering:optimizeQuality; fill-rule:evenodd; clip-rule:evenodd"
viewBox="0 0 5079.98 2463.78"
 xmlns:xlink="http://www.w3.org/1999/xlink"
 xmlns:xodm="http://www.corel.com/coreldraw/odm/2003">
 <defs>
  <style type="text/css">
   <![CDATA[
    .fil0 {fill:#00E000}
    .fil1 {fill:#F2F2F2}
   ]]>
  </style>
 </defs>
 <g id="Capa_x0020_1">
  <metadata id="CorelCorpID_0Corel-Layer"/>
  <g id="_2103172685744">
   <path class="fil0" d="M4759.4 931.79l18.43 18.85 55.62 58.24c175.95,227.58 153.31,322.76 9.96,529.93 -164.16,237.2 -454.53,543.84 -752.36,628.87 -301.72,86.14 -286.43,-133.35 -624.92,-481 -52.68,-54.13 -72.58,-65.27 -113.07,-125.74l-26.53 -26.53c-146.12,-97.84 -342.37,-274.54 -530.7,-318.42l30.35 -22.7c248.24,-170.33 324.02,-184.89 573.33,-435.02l537.31 -550.6c116.76,-30.25 600.07,411.8 740.17,586.13 62.79,78.13 57.75,32.47 82.41,137.99zm-2016.64 284.2c0,148.05 237.01,368.46 344.94,451.1 61.96,47.44 80.3,73.44 140.61,124.74 191.26,162.71 420.04,327.04 655.72,432.21 227.02,101.3 568.94,228.22 823.11,80.68 194.07,-112.64 291.86,-369.17 327.67,-586.9 52.47,-319.02 -47.01,-209.94 3.54,-633.28 13.73,-114.94 -8.26,-306.42 -56.32,-462.66 -106.4,-345.87 -308.07,-433.31 -537.47,-523.93 -30.82,-12.17 46.4,-22.95 -109.71,-22.95 -66.41,0 -478.68,98.32 -539.29,124.07 -380.65,161.79 -1052.8,712.48 -1052.8,1016.92z"/>
   <path class="fil1" d="M1734.44 1109.85c3.52,5.55 7.76,8.13 8.95,17.58 1.18,9.53 7.03,13.83 8.59,17.94l35.53 150.22 -79.61 0c2.6,-116.6 17.96,-82.65 26.54,-185.74zm-238.81 451.09c147.52,0 155.88,16.46 159.21,-132.67l185.74 0c3.11,139.82 -0.44,132.67 159.21,132.67 -2.73,-122.28 -47.97,-232.38 -73.85,-324.17 -32.3,-114.57 -59.21,-200.42 -85.36,-312.66l-159.21 0c-49.08,210.65 -134.37,416.33 -185.74,636.83z"/>
   <path class="fil1" d="M4777.83 950.64l-18.43 -18.85c-161.13,77.67 -104.53,123.45 -265.35,231.13 -169.79,-253.57 -90.58,-261.45 -265.34,-265.35 36.85,101.79 3.88,3.27 42.34,63.8 26.2,41.25 21.98,11.63 37.26,68.88 -70.59,32.65 -72.88,13.5 -132.67,-26.53 10.21,122.7 16.61,97.53 104.65,134.15 6.07,2.52 13.75,4.19 19.79,6.75 133.48,56.59 38.98,44.15 140.9,71.37l-32.02 21.02c-3.09,2.34 -11.55,8.31 -15.3,11.24l-29.18 23.9c-96.09,80.09 -188.86,136.41 -215.37,235.72l58.37 47.77c97.35,-21.15 142.71,-107.22 217.88,-196.07l58.4 -74.31c2.26,-3.21 6.65,-10.94 10.29,-16.2 42.67,159.77 101.64,36.27 106.14,238.81 64.34,14.99 106.48,27.77 159.21,53.07 -23.27,-87.17 -47.58,-44.2 -79.6,-132.67 67.81,-32.54 -2.26,-5.33 75.52,-18.58 4.01,-0.69 12.61,-1.33 16.4,-1.93l40.75 -6.02c-64.99,-97.07 -73.27,-57.13 -265.34,-185.75 106.37,-158.84 159.67,-114.72 230.7,-265.35z"/>
   <polygon class="fil1" points="3326.53,1534.41 3353.06,1560.94 3485.74,1560.94 3485.74,1322.13 3671.48,1322.13 3671.48,1189.46 3485.74,1189.46 3485.74,1030.25 3724.55,1030.25 3724.55,924.11 3326.53,924.11 "/>
   <path class="fil1" d="M2291.67 1322.13l0 238.81 159.21 0c0,-537.79 93.54,-354.98 159.21,-636.83l-132.68 0c-39.03,73.78 -58.03,119.66 -79.6,212.27l-83.59 -210.94 -181.76 -1.33c37.81,71.45 159.21,306.81 159.21,398.02z"/>
   <polygon class="fil1" points="991.47,1560.94 1362.95,1560.94 1362.95,1428.27 1150.68,1428.27 1150.68,924.11 991.47,924.11 "/>
   <path class="fil1" d="M142.35 1348.67l0 53.07c-70.43,33.79 -28.39,24.21 -132.67,26.53l0 132.67 212.28 0c124.41,-185.79 79.6,-270.74 79.6,-636.83l-159.21 0 0 424.56z"/>
   <polygon class="fil1" points="566.91,1560.94 726.12,1560.94 726.12,924.11 566.91,924.11 "/>
   <polygon class="fil1" points="3910.29,1560.94 4069.5,1560.94 4069.5,1083.32 3910.29,1083.32 "/>
   <polygon class="fil1" points="3910.29,1056.78 4069.5,1056.78 4069.5,924.11 3910.29,924.11 "/>
  </g>
 </g>
</svg>
