<?xml version="1.0" encoding="UTF-8"?>
<!DOCTYPE svg PUBLIC "-//W3C//DTD SVG 1.1//EN" "http://www.w3.org/Graphics/SVG/1.1/DTD/svg11.dtd">
<!-- Creator: CorelDRAW 2020 (64-Bit) -->
<svg xmlns="http://www.w3.org/2000/svg" xml:space="preserve" width="64px" height="64px" version="1.1" style="shape-rendering:geometricPrecision; text-rendering:geometricPrecision; image-rendering:optimizeQuality; fill-rule:evenodd; clip-rule:evenodd"
viewBox="0 0 64 64"
 xmlns:xlink="http://www.w3.org/1999/xlink"
 xmlns:xodm="http://www.corel.com/coreldraw/odm/2003">
 <defs>
  <style type="text/css">
   <![CDATA[
    .fil0 {fill:white}
   ]]>
  </style>
 </defs>
 <g id="Capa_x0020_1">
  <metadata id="CorelCorpID_0Corel-Layer"/>
  <path class="fil0" d="M1.56 30.94c-0.76,0.37 -0.77,0.35 -0.77,0.31 0.01,-0.04 0.02,-0.1 0.19,-0.67 0.17,-0.57 0.51,-1.65 0.98,-2.68 0.47,-1.03 1.07,-2 1.95,-3.18 0.88,-1.18 2.05,-2.56 3.33,-3.99 1.29,-1.43 2.7,-2.9 4.63,-4.64 1.93,-1.74 4.39,-3.74 6.86,-5.51 2.48,-1.76 4.97,-3.27 7.46,-4.51 2.5,-1.23 5,-2.19 6.24,-2.66 1.25,-0.48 1.25,-0.48 1.25,-0.48 0,0 0,0 -1.31,1.44 -1.32,1.43 -3.95,4.3 -6.5,6.99 -2.54,2.69 -4.99,5.2 -7.2,7.3 -2.2,2.11 -4.17,3.82 -6.35,5.48 -2.17,1.67 -4.54,3.3 -6.5,4.49 -1.95,1.19 -3.49,1.94 -4.26,2.31z"/>
  <path class="fil0" d="M62.7 33.35c0.02,-0.09 0.05,-0.25 0.13,-2.11 0.08,-1.85 0.21,-5.39 0.15,-8.05 -0.06,-2.66 -0.32,-4.45 -0.58,-5.79 -0.26,-1.34 -0.53,-2.23 -1.05,-3.41 -0.51,-1.17 -1.26,-2.63 -2.15,-3.99 -0.89,-1.35 -1.92,-2.6 -3.01,-3.67 -1.08,-1.06 -2.21,-1.94 -3.7,-2.69 -1.48,-0.75 -3.32,-1.37 -5.3,-1.68 -1.99,-0.31 -4.14,-0.31 -6.41,-0.1 -2.28,0.22 -4.69,0.64 -5.89,0.86 -1.21,0.21 -1.21,0.21 -1.21,0.21 0,0 0,0 0.81,0.5 0.8,0.49 2.4,1.49 4.69,3.19 2.3,1.7 5.27,4.11 7.28,5.8 2,1.69 3.04,2.65 4.02,3.64 0.98,0.98 1.91,1.98 3.05,3.36 1.14,1.38 2.49,3.14 3.54,4.62 1.05,1.48 1.8,2.68 2.65,4.08 0.84,1.41 1.78,3.01 2.29,3.92 0.51,0.92 0.59,1.16 0.64,1.27 0.04,0.12 0.04,0.12 0.05,0.04z"/>
  <path class="fil0" d="M33.12 59.73c-0.63,-0.3 -0.63,-0.3 -0.1,-0.35 0.53,-0.05 1.59,-0.15 2.42,-0.27 0.83,-0.11 1.44,-0.25 2.09,-0.44 0.66,-0.18 1.37,-0.42 2.31,-0.81 0.93,-0.4 2.09,-0.96 3.32,-1.7 1.24,-0.74 2.55,-1.67 4.02,-2.88 1.47,-1.21 3.1,-2.72 4.34,-3.92 1.23,-1.2 2.07,-2.1 2.77,-2.88 0.7,-0.77 1.26,-1.42 2.01,-2.36 0.75,-0.93 1.69,-2.16 2.51,-3.37 0.81,-1.2 1.5,-2.38 2.05,-3.38 0.55,-1 0.96,-1.83 1.24,-2.46 0.28,-0.63 0.43,-1.07 0.51,-1.28 0.08,-0.22 0.08,-0.22 0.08,-0.2 0,0.02 -0.01,0.07 0.07,0.92 0.08,0.86 0.23,2.52 0.32,3.84 0.1,1.31 0.14,2.27 0.14,3.3 0,1.03 -0.03,2.14 -0.08,3.1 -0.04,0.97 -0.11,1.79 -0.25,2.78 -0.15,0.99 -0.37,2.15 -0.73,3.35 -0.36,1.2 -0.85,2.44 -1.39,3.58 -0.55,1.14 -1.16,2.17 -1.88,3.18 -0.73,1.01 -1.58,1.99 -2.66,2.85 -1.08,0.86 -2.38,1.6 -4.04,2.1 -1.65,0.51 -3.66,0.77 -5.56,0.81 -1.89,0.03 -3.67,-0.17 -5.38,-0.54 -1.7,-0.37 -3.33,-0.92 -4.78,-1.49 -1.45,-0.57 -2.71,-1.18 -3.35,-1.48z"/>
  <path class="fil0" d="M0.82 31.54c-0.03,-0.29 -0.03,-0.29 -0.02,-0.26 0.01,0.03 0.02,0.1 0.82,0.53 0.8,0.44 2.38,1.25 4.11,2.22 1.72,0.98 3.58,2.13 5.12,3.17 1.54,1.03 2.75,1.96 3.93,2.96 1.18,1 2.33,2.07 3.42,3.17 1.09,1.09 2.13,2.22 3,3.21 0.87,0.98 1.57,1.81 2.48,2.91 0.9,1.1 2.01,2.46 3.01,3.68 1,1.21 1.9,2.27 2.88,3.29 0.97,1.03 2.02,2.03 2.55,2.53 0.52,0.49 0.52,0.49 0.52,0.49 -0.01,0 -0.04,0 -0.71,-0.3 -0.67,-0.3 -1.99,-0.9 -3.27,-1.53 -1.27,-0.62 -2.51,-1.27 -3.64,-1.91 -1.13,-0.65 -2.16,-1.29 -3.42,-2.17 -1.26,-0.88 -2.74,-2 -3.98,-2.97 -1.24,-0.97 -2.23,-1.79 -3.35,-2.74 -1.11,-0.94 -2.36,-2.01 -3.41,-2.92 -1.05,-0.9 -1.9,-1.66 -2.67,-2.36 -0.78,-0.7 -1.47,-1.34 -2.19,-2.04 -0.71,-0.71 -1.43,-1.46 -2.14,-2.33 -0.72,-0.86 -1.41,-1.83 -1.9,-2.72 -0.48,-0.88 -0.76,-1.67 -0.92,-2.35 -0.16,-0.69 -0.2,-1.27 -0.22,-1.56z"/>
 </g>
</svg>
