<?xml version="1.0" encoding="UTF-8"?>
<!DOCTYPE svg PUBLIC "-//W3C//DTD SVG 1.1//EN" "http://www.w3.org/Graphics/SVG/1.1/DTD/svg11.dtd">
<!-- Creator: CorelDRAW 2020 (64-Bit) -->
<svg xmlns="http://www.w3.org/2000/svg" xml:space="preserve" width="250px" height="70px" version="1.1" style="shape-rendering:geometricPrecision; text-rendering:geometricPrecision; image-rendering:optimizeQuality; fill-rule:evenodd; clip-rule:evenodd"
viewBox="0 0 250 70"
 xmlns:xlink="http://www.w3.org/1999/xlink"
 xmlns:xodm="http://www.corel.com/coreldraw/odm/2003">
 <defs>
  <style type="text/css">
   <![CDATA[
    .fil0 {fill:#61FD2C}
    .fil1 {fill:#FEFEFE;fill-rule:nonzero}
   ]]>
  </style>
 </defs>
 <g id="Capa_x0020_1">
  <metadata id="CorelCorpID_0Corel-Layer"/>
  <g id="_1461911000432">
   <path class="fil0" d="M6 33.24c-0.82,0.4 -0.83,0.38 -0.83,0.33 0.01,-0.04 0.02,-0.11 0.2,-0.72 0.19,-0.61 0.55,-1.78 1.06,-2.88 0.5,-1.1 1.14,-2.15 2.09,-3.41 0.95,-1.27 2.2,-2.76 3.59,-4.29 1.38,-1.54 2.89,-3.12 4.96,-4.99 2.08,-1.87 4.72,-4.02 7.38,-5.92 2.66,-1.89 5.34,-3.52 8.02,-4.84 2.68,-1.33 5.36,-2.35 6.7,-2.87 1.34,-0.51 1.34,-0.51 1.34,-0.51 0,0 0,0 -1.41,1.54 -1.42,1.55 -4.24,4.63 -6.98,7.52 -2.73,2.89 -5.36,5.58 -7.73,7.85 -2.38,2.26 -4.49,4.09 -6.83,5.89 -2.33,1.79 -4.88,3.53 -6.98,4.81 -2.1,1.28 -3.75,2.09 -4.58,2.49z"/>
   <path class="fil0" d="M71.7 35.83c0.01,-0.09 0.05,-0.27 0.13,-2.26 0.09,-2 0.23,-5.8 0.16,-8.66 -0.06,-2.86 -0.33,-4.78 -0.61,-6.22 -0.29,-1.44 -0.58,-2.4 -1.13,-3.66 -0.55,-1.27 -1.36,-2.83 -2.32,-4.29 -0.96,-1.45 -2.06,-2.8 -3.23,-3.94 -1.16,-1.15 -2.38,-2.09 -3.97,-2.9 -1.6,-0.8 -3.57,-1.47 -5.71,-1.8 -2.13,-0.34 -4.44,-0.34 -6.88,-0.11 -2.45,0.23 -5.04,0.69 -6.33,0.92 -1.3,0.23 -1.3,0.23 -1.3,0.23 0,0 0,0 0.87,0.53 0.86,0.54 2.59,1.6 5.05,3.43 2.46,1.83 5.66,4.42 7.81,6.23 2.16,1.82 3.27,2.86 4.32,3.92 1.06,1.05 2.06,2.13 3.29,3.61 1.22,1.48 2.66,3.37 3.79,4.96 1.13,1.59 1.95,2.89 2.85,4.39 0.91,1.51 1.92,3.23 2.46,4.22 0.55,0.98 0.64,1.23 0.69,1.36 0.04,0.13 0.04,0.13 0.06,0.04z"/>
   <path class="fil0" d="M39.92 64.18c-0.69,-0.32 -0.69,-0.32 -0.12,-0.38 0.57,-0.05 1.71,-0.16 2.61,-0.29 0.89,-0.12 1.54,-0.27 2.24,-0.47 0.71,-0.2 1.47,-0.45 2.48,-0.88 1,-0.42 2.24,-1.03 3.57,-1.82 1.33,-0.8 2.74,-1.79 4.32,-3.09 1.58,-1.31 3.34,-2.93 4.66,-4.22 1.33,-1.29 2.23,-2.26 2.98,-3.09 0.75,-0.83 1.35,-1.53 2.16,-2.54 0.81,-1 1.82,-2.32 2.69,-3.62 0.88,-1.29 1.62,-2.55 2.21,-3.63 0.59,-1.08 1.03,-1.97 1.33,-2.64 0.3,-0.68 0.47,-1.15 0.55,-1.38 0.08,-0.24 0.08,-0.24 0.08,-0.21 0,0.02 0,0.07 0.08,0.98 0.08,0.92 0.25,2.71 0.35,4.12 0.1,1.42 0.14,2.44 0.15,3.55 0,1.11 -0.03,2.3 -0.09,3.34 -0.05,1.04 -0.12,1.92 -0.27,2.99 -0.16,1.06 -0.4,2.31 -0.79,3.6 -0.38,1.29 -0.9,2.62 -1.49,3.84 -0.59,1.23 -1.24,2.34 -2.02,3.42 -0.78,1.08 -1.7,2.13 -2.85,3.06 -1.16,0.92 -2.56,1.72 -4.34,2.26 -1.78,0.54 -3.94,0.83 -5.98,0.87 -2.04,0.03 -3.95,-0.18 -5.78,-0.58 -1.83,-0.4 -3.58,-0.99 -5.14,-1.6 -1.55,-0.62 -2.91,-1.27 -3.59,-1.59z"/>
   <path class="fil0" d="M5.2 33.89c-0.03,-0.32 -0.03,-0.32 -0.02,-0.28 0.01,0.03 0.02,0.1 0.88,0.57 0.86,0.46 2.56,1.33 4.42,2.38 1.85,1.05 3.85,2.29 5.5,3.4 1.65,1.12 2.96,2.11 4.22,3.19 1.27,1.07 2.5,2.22 3.68,3.4 1.17,1.18 2.29,2.39 3.22,3.45 0.94,1.05 1.69,1.95 2.66,3.13 0.97,1.18 2.16,2.65 3.24,3.95 1.08,1.3 2.05,2.44 3.09,3.54 1.05,1.11 2.18,2.18 2.74,2.71 0.57,0.54 0.57,0.54 0.56,0.54 -0.01,-0.01 -0.03,-0.01 -0.75,-0.33 -0.73,-0.32 -2.15,-0.97 -3.52,-1.64 -1.37,-0.67 -2.7,-1.36 -3.92,-2.06 -1.21,-0.69 -2.32,-1.38 -3.67,-2.32 -1.35,-0.95 -2.95,-2.15 -4.28,-3.2 -1.33,-1.04 -2.39,-1.92 -3.59,-2.94 -1.2,-1.01 -2.54,-2.16 -3.67,-3.14 -1.12,-0.97 -2.04,-1.78 -2.87,-2.53 -0.84,-0.75 -1.58,-1.45 -2.35,-2.2 -0.76,-0.76 -1.54,-1.57 -2.31,-2.5 -0.76,-0.93 -1.51,-1.97 -2.03,-2.92 -0.52,-0.95 -0.82,-1.79 -0.99,-2.53 -0.17,-0.74 -0.22,-1.36 -0.24,-1.67z"/>
   <path class="fil1" d="M95.56 16.78l7.27 0 0 22.03c0,2.81 -0.2,5 -0.62,6.56 -0.41,1.57 -1.26,2.81 -2.56,3.73 -1.3,0.92 -3.22,1.39 -5.76,1.39 -1.11,0 -2.58,-0.17 -4.45,-0.52l0 -6.1c1.17,0.23 2.16,0.35 2.95,0.35 1.29,0 2.14,-0.35 2.55,-1.04 0.42,-0.69 0.62,-2.14 0.62,-4.37l0 -22.03z"/>
   <polygon id="1" class="fil1" points="118.23,16.78 125.5,16.78 125.5,49.99 118.23,49.99 "/>
   <polygon id="2" class="fil1" points="141.08,16.78 148.35,16.78 148.35,43.82 159.1,43.82 159.1,49.99 141.08,49.99 "/>
   <path id="3" class="fil1" d="M177.4 16.78l7.35 0 9.47 33.21 -7.45 0 -1.66 -6.87 -9.33 0 -1.64 6.87 -6.7 0 9.96 -33.21zm6.34 20.66l-3.35 -13.61 -3.22 13.61 6.57 0z"/>
   <polygon id="4" class="fil1" points="201.78,16.78 209.7,16.78 214.4,28.97 219.44,16.78 226.57,16.78 217.36,35.95 217.36,49.99 210.09,49.99 210.09,35.95 "/>
  </g>
 </g>
</svg>
