<?xml version="1.0" encoding="UTF-8"?>
<!DOCTYPE svg PUBLIC "-//W3C//DTD SVG 1.1//EN" "http://www.w3.org/Graphics/SVG/1.1/DTD/svg11.dtd">
<!-- Creator: CorelDRAW 2020 (64-Bit) -->
<svg xmlns="http://www.w3.org/2000/svg" xml:space="preserve" width="210px" height="64px" version="1.1" style="shape-rendering:geometricPrecision; text-rendering:geometricPrecision; image-rendering:optimizeQuality; fill-rule:evenodd; clip-rule:evenodd"
viewBox="0 0 210 64"
 xmlns:xlink="http://www.w3.org/1999/xlink"
 xmlns:xodm="http://www.corel.com/coreldraw/odm/2003">
 <defs>
  <style type="text/css">
   <![CDATA[
    .fil1 {fill:#2EB67D}
    .fil0 {fill:#36C5F0}
    .fil3 {fill:#E01E5A}
    .fil2 {fill:#ECB22E}
    .fil4 {fill:#FEFEFE;fill-rule:nonzero}
   ]]>
  </style>
 </defs>
 <g id="Capa_x0020_1">
  <metadata id="CorelCorpID_0Corel-Layer"/>
  <g id="_2295487727376">
   <g>
    <path class="fil0" d="M2.38 29.69c-0.77,0.37 -0.77,0.35 -0.77,0.31 0,-0.04 0.01,-0.1 0.19,-0.67 0.17,-0.57 0.51,-1.65 0.98,-2.68 0.47,-1.03 1.07,-2 1.95,-3.18 0.88,-1.18 2.05,-2.56 3.33,-3.99 1.29,-1.43 2.69,-2.9 4.63,-4.64 1.93,-1.74 4.39,-3.74 6.86,-5.51 2.48,-1.76 4.97,-3.27 7.46,-4.51 2.5,-1.23 4.99,-2.18 6.24,-2.66 1.25,-0.48 1.25,-0.48 1.25,-0.48 0,0 0,0 -1.32,1.44 -1.31,1.43 -3.95,4.3 -6.49,6.99 -2.54,2.69 -4.99,5.2 -7.2,7.3 -2.21,2.11 -4.18,3.82 -6.35,5.48 -2.17,1.67 -4.55,3.3 -6.5,4.49 -1.96,1.19 -3.49,1.94 -4.26,2.31z"/>
    <path class="fil1" d="M63.52 32.1c0.01,-0.09 0.04,-0.25 0.12,-2.11 0.08,-1.85 0.21,-5.39 0.15,-8.05 -0.06,-2.66 -0.31,-4.45 -0.57,-5.78 -0.26,-1.35 -0.54,-2.24 -1.05,-3.42 -0.51,-1.17 -1.26,-2.63 -2.16,-3.99 -0.89,-1.35 -1.92,-2.6 -3,-3.67 -1.08,-1.06 -2.22,-1.94 -3.7,-2.69 -1.49,-0.75 -3.32,-1.37 -5.31,-1.68 -1.99,-0.31 -4.13,-0.31 -6.41,-0.1 -2.27,0.22 -4.68,0.64 -5.89,0.86 -1.2,0.21 -1.2,0.21 -1.2,0.21 0,0 0,0 0.8,0.5 0.81,0.49 2.41,1.49 4.7,3.19 2.29,1.7 5.27,4.11 7.27,5.8 2.01,1.69 3.04,2.65 4.03,3.64 0.98,0.98 1.91,1.98 3.05,3.36 1.14,1.38 2.48,3.14 3.54,4.62 1.05,1.48 1.8,2.68 2.65,4.09 0.84,1.4 1.78,3 2.29,3.92 0.51,0.91 0.59,1.15 0.63,1.26 0.05,0.12 0.05,0.12 0.06,0.04z"/>
    <path class="fil2" d="M33.94 58.49c-0.63,-0.3 -0.63,-0.3 -0.1,-0.36 0.53,-0.05 1.59,-0.15 2.42,-0.27 0.83,-0.11 1.43,-0.25 2.09,-0.44 0.66,-0.18 1.37,-0.42 2.31,-0.81 0.93,-0.4 2.08,-0.96 3.32,-1.7 1.23,-0.74 2.55,-1.67 4.02,-2.88 1.47,-1.21 3.1,-2.72 4.34,-3.92 1.23,-1.2 2.07,-2.1 2.76,-2.88 0.71,-0.77 1.27,-1.42 2.02,-2.36 0.75,-0.93 1.69,-2.16 2.51,-3.37 0.81,-1.2 1.5,-2.38 2.05,-3.38 0.55,-1 0.96,-1.83 1.24,-2.46 0.28,-0.63 0.43,-1.06 0.51,-1.28 0.08,-0.22 0.08,-0.22 0.08,-0.2 -0.01,0.02 -0.01,0.07 0.07,0.92 0.07,0.86 0.23,2.52 0.32,3.84 0.1,1.31 0.14,2.27 0.14,3.3 0,1.03 -0.03,2.14 -0.08,3.1 -0.05,0.97 -0.11,1.79 -0.26,2.78 -0.14,0.99 -0.37,2.15 -0.73,3.35 -0.35,1.2 -0.84,2.44 -1.39,3.58 -0.54,1.14 -1.15,2.17 -1.88,3.18 -0.72,1.01 -1.57,1.99 -2.65,2.85 -1.08,0.86 -2.38,1.6 -4.04,2.1 -1.66,0.51 -3.67,0.77 -5.56,0.81 -1.9,0.03 -3.68,-0.17 -5.38,-0.54 -1.71,-0.37 -3.33,-0.92 -4.78,-1.49 -1.45,-0.57 -2.72,-1.17 -3.35,-1.47z"/>
    <path class="fil3" d="M1.63 30.29c-0.02,-0.29 -0.02,-0.29 -0.01,-0.26 0.01,0.03 0.02,0.1 0.82,0.53 0.8,0.44 2.38,1.25 4.11,2.22 1.72,0.98 3.58,2.13 5.12,3.17 1.54,1.03 2.75,1.96 3.93,2.96 1.18,1 2.32,2.07 3.42,3.17 1.09,1.09 2.13,2.22 3,3.21 0.87,0.98 1.57,1.81 2.47,2.91 0.91,1.1 2.01,2.47 3.02,3.68 1,1.21 1.9,2.27 2.88,3.29 0.97,1.03 2.02,2.03 2.55,2.53 0.52,0.49 0.52,0.49 0.51,0.49 -0.01,0 -0.03,0 -0.7,-0.3 -0.67,-0.3 -1.99,-0.9 -3.27,-1.52 -1.28,-0.63 -2.51,-1.28 -3.64,-1.92 -1.14,-0.65 -2.17,-1.29 -3.42,-2.17 -1.26,-0.88 -2.74,-2 -3.98,-2.97 -1.24,-0.97 -2.23,-1.79 -3.35,-2.74 -1.12,-0.94 -2.36,-2.01 -3.41,-2.91 -1.05,-0.91 -1.9,-1.67 -2.68,-2.37 -0.77,-0.7 -1.47,-1.34 -2.18,-2.04 -0.71,-0.71 -1.44,-1.46 -2.15,-2.33 -0.71,-0.86 -1.4,-1.83 -1.89,-2.71 -0.48,-0.88 -0.76,-1.68 -0.92,-2.36 -0.16,-0.69 -0.2,-1.27 -0.23,-1.56z"/>
   </g>
   <path class="fil4" d="M83.55 16.38l6.71 0 0 20.33c0,2.59 -0.19,4.61 -0.58,6.05 -0.37,1.45 -1.16,2.59 -2.36,3.44 -1.2,0.85 -2.96,1.28 -5.32,1.28 -1.01,0 -2.38,-0.16 -4.1,-0.47l0 -5.64c1.08,0.22 1.99,0.32 2.73,0.32 1.18,0 1.96,-0.32 2.35,-0.95 0.38,-0.64 0.57,-1.98 0.57,-4.03l0 -20.33z"/>
   <polygon id="1" class="fil4" points="104.46,16.38 111.17,16.38 111.17,47.02 104.46,47.02 "/>
   <polygon id="2" class="fil4" points="125.55,16.38 132.26,16.38 132.26,41.33 142.19,41.33 142.19,47.02 125.55,47.02 "/>
   <path id="3" class="fil4" d="M159.07 16.38l6.78 0 8.74 30.64 -6.87 0 -1.54 -6.34 -8.61 0 -1.51 6.34 -6.19 0 9.2 -30.64zm5.85 19.07l-3.09 -12.56 -2.97 12.56 6.06 0z"/>
   <polygon id="4" class="fil4" points="181.56,16.38 188.87,16.38 193.21,27.63 197.86,16.38 204.44,16.38 195.94,34.07 195.94,47.02 189.23,47.02 189.23,34.07 "/>
  </g>
 </g>
</svg>
